<?xml version="1.0" standalone="no"?>
<!DOCTYPE svg PUBLIC "-//W3C//DTD SVG 20010904//EN"
 "http://www.w3.org/TR/2001/REC-SVG-20010904/DTD/svg10.dtd">
<svg version="1.0" xmlns="http://www.w3.org/2000/svg"
 width="2084.000000pt" height="2084.000000pt" viewBox="0 0 2084.000000 2084.000000"
 preserveAspectRatio="xMidYMid meet">

<g transform="translate(0.000000,2084.000000) scale(0.100000,-0.100000)"
fill="#000000" stroke="none">
<path d="M10150 17369 c-1604 -56 -3163 -685 -4365 -1761 -185 -165 -501 -488
-651 -663 -1089 -1275 -1674 -2857 -1674 -4530 0 -1555 509 -3039 1465 -4270
331 -426 794 -890 1215 -1216 1076 -834 2305 -1318 3670 -1444 236 -22 743
-30 985 -16 1475 86 2838 608 3980 1524 385 309 819 750 1126 1142 733 938
1212 2047 1393 3225 56 363 77 649 77 1050 0 559 -49 1008 -166 1535 -421
1890 -1639 3540 -3330 4510 -1127 647 -2404 960 -3725 914z m850 -1423 c709
-79 1352 -273 1974 -594 1131 -585 2037 -1555 2544 -2727 248 -572 396 -1177
442 -1800 13 -181 13 -643 0 -816 -108 -1404 -720 -2686 -1740 -3644 -409
-384 -817 -667 -1330 -924 -988 -493 -2075 -676 -3190 -535 -827 104 -1640
406 -2340 869 -335 221 -573 417 -871 714 -461 462 -779 906 -1064 1486 -396
807 -581 1645 -562 2555 14 689 136 1301 383 1930 79 198 252 556 359 741 828
1426 2256 2421 3869 2694 134 23 443 60 566 69 148 10 822 -3 960 -18z"/>
<path d="M9757 14029 c-89 -21 -160 -80 -198 -163 -18 -39 -19 -110 -19 -1743
l0 -1703 -1092 -2 -1093 -3 -45 -25 c-99 -56 -146 -169 -115 -277 16 -55 29
-70 274 -318 141 -143 838 -850 1549 -1571 810 -822 1304 -1317 1324 -1325 42
-18 134 -18 176 0 46 19 3099 3117 3131 3177 59 109 11 256 -103 317 l-41 22
-1077 3 -1078 2 -2 1703 -3 1702 -21 45 c-27 56 -83 113 -143 142 l-46 23
-670 2 c-371 1 -687 -3 -708 -8z"/>
</g>
</svg>
