<svg id="Layer_2" data-name="Layer 2" xmlns="http://www.w3.org/2000/svg"  width="18px" height="18px" viewBox="0 0 57.837 89.976">
  <g id="Group_1" data-name="Group 1" transform="translate(0)">
    <path id="Path_1" fill="#fff" data-name="Path 1" d="M0,9.07A9.551,9.551,0,0,1,.81,5.219,8.46,8.46,0,0,1,8.58,0H81.39a8.46,8.46,0,0,1,7.77,5.22,9.38,9.38,0,0,1-1.61,10.12L51.15,55.08a8.26,8.26,0,0,1-12.32,0L2.42,15.34A9.27,9.27,0,0,1,0,9.07Zm27.88-.41H12.58a1.87,1.87,0,0,0-1.67,1.25,2.73,2.73,0,0,0,.42,2.93l32.4,34.73a1.61,1.61,0,0,0,2.49,0l32.4-34.73a2.73,2.73,0,0,0,.42-2.93,1.87,1.87,0,0,0-1.67-1.24Z" transform="translate(57.837 0) rotate(90)"/>
  </g>
</svg>
