<svg width="20" height="21" viewBox="0 0 20 21" fill="none" xmlns="http://www.w3.org/2000/svg">
<path d="M16.875 17.3359C14.974 19.237 12.6823 20.1875 10 20.1875C7.31771 20.1875 5.03906 19.237 3.16406 17.3359C1.26302 15.4609 0.3125 13.1823 0.3125 10.5C0.3125 7.81771 1.26302 5.52604 3.16406 3.625C5.03906 1.75 7.31771 0.8125 10 0.8125C12.6823 0.8125 14.974 1.75 16.875 3.625C18.75 5.52604 19.6875 7.81771 19.6875 10.5C19.6875 13.1823 18.75 15.4609 16.875 17.3359ZM15.5469 4.95312C14.0104 3.44271 12.1615 2.6875 10 2.6875C7.83854 2.6875 6.0026 3.44271 4.49219 4.95312C2.95573 6.48958 2.1875 8.33854 2.1875 10.5C2.1875 12.6615 2.95573 14.4974 4.49219 16.0078C6.0026 17.5443 7.83854 18.3125 10 18.3125C12.1615 18.3125 14.0104 17.5443 15.5469 16.0078C17.0573 14.4974 17.8125 12.6615 17.8125 10.5C17.8125 8.33854 17.0573 6.48958 15.5469 4.95312ZM11.25 15.0312C11.25 15.3438 11.0938 15.5 10.7812 15.5H9.21875C8.90625 15.5 8.75 15.3437 8.75 15.0312L8.75 10.5H6.13281C5.92448 10.5 5.78125 10.3958 5.70313 10.1875C5.625 10.0052 5.65104 9.84896 5.78125 9.71875L9.6875 5.8125C9.89583 5.60417 10.1042 5.60417 10.3125 5.8125L14.2188 9.71875C14.349 9.84896 14.375 10.0052 14.2969 10.1875C14.2188 10.3958 14.0755 10.5 13.8672 10.5L11.25 10.5L11.25 15.0312Z" fill="white"/>
</svg>
