<svg xmlns="http://www.w3.org/2000/svg" width="18px" height="18px" viewBox="0 0 57.837 89.976">
  <g id="Layer_2" data-name="Layer 2" transform="translate(-16.069 16.069)">
    <g id="Group_1" data-name="Group 1">
      <path id="Path_1" fill="#fff" data-name="Path 1" d="M0,48.767a9.551,9.551,0,0,0,.81,3.851,8.46,8.46,0,0,0,7.77,5.219H81.39a8.46,8.46,0,0,0,7.77-5.22A9.38,9.38,0,0,0,87.55,42.5L51.15,2.757a8.26,8.26,0,0,0-12.32,0L2.42,42.5A9.27,9.27,0,0,0,0,48.767Zm27.88.41H12.58a1.87,1.87,0,0,1-1.67-1.25A2.73,2.73,0,0,1,11.33,45l32.4-34.73a1.61,1.61,0,0,1,2.49,0L78.62,45a2.73,2.73,0,0,1,.42,2.93,1.87,1.87,0,0,1-1.67,1.24Z" transform="translate(73.906 -16.069) rotate(90)"/>
    </g>
  </g>
</svg>
