<svg height='8px'  fill="#222" xmlns="http://www.w3.org/2000/svg" viewBox="0 0 89.97 57.83" x="0px" y="0px"><defs><style>.cls-1{fill:#000000;}</style></defs><title>Arrow Line Caret Down</title><g data-name="Layer 2"><g><path class="cls-1" d="M0,9.07A9.55,9.55,0,0,1,.81,5.22,8.46,8.46,0,0,1,8.58,0H81.39a8.46,8.46,0,0,1,7.77,5.22,9.38,9.38,0,0,1-1.61,10.12L51.15,55.08a8.26,8.26,0,0,1-12.32,0L2.42,15.34A9.27,9.27,0,0,1,0,9.07ZM30.88,6.66H8.58A1.87,1.87,0,0,0,6.91,7.91a2.73,2.73,0,0,0,.42,2.93l36.4,39.73a1.61,1.61,0,0,0,2.49,0l36.4-39.73a2.73,2.73,0,0,0,.42-2.93,1.87,1.87,0,0,0-1.67-1.24Z"></path></g></g></svg>