<svg width="23" height="20" viewBox="0 0 23 20" fill="none" xmlns="http://www.w3.org/2000/svg">
<path d="M15.7031 13.4766L16.9531 12.2266C17.0573 12.1224 17.1745 12.0964 17.3047 12.1484C17.4349 12.2005 17.5 12.3047 17.5 12.4609V18.125C17.5 18.6458 17.3177 19.0885 16.9531 19.4531C16.5885 19.8177 16.1458 20 15.625 20H1.875C1.35417 20 0.911458 19.8177 0.546875 19.4531C0.182292 19.0885 0 18.6458 0 18.125V4.375C0 3.85417 0.182292 3.41146 0.546875 3.04688C0.911458 2.68229 1.35417 2.5 1.875 2.5H12.5781C12.7083 2.5 12.7995 2.5651 12.8516 2.69531C12.9036 2.82552 12.8776 2.94271 12.7734 3.04688L11.5234 4.29688C11.4714 4.34896 11.4062 4.375 11.3281 4.375H1.875V18.125H15.625V13.6719C15.625 13.5938 15.651 13.5286 15.7031 13.4766ZM21.8359 5.58594L11.5625 15.8594L8.04688 16.25C7.52604 16.3021 7.08333 16.1458 6.71875 15.7812C6.35417 15.4167 6.19792 14.974 6.25 14.4531L6.64062 10.9375L16.9141 0.664062C17.3568 0.221354 17.8906 0 18.5156 0C19.1406 0 19.6875 0.221354 20.1562 0.664062L21.8359 2.34375C22.2786 2.78646 22.5 3.33333 22.5 3.98438C22.5 4.60938 22.2786 5.14323 21.8359 5.58594ZM17.9688 6.79688L15.7031 4.53125L8.4375 11.7969L8.16406 14.3359L10.7031 14.0625L17.9688 6.79688ZM20.5078 3.67188L18.8281 1.99219C18.6198 1.8099 18.4245 1.8099 18.2422 1.99219L17.0312 3.20312L19.2969 5.46875L20.5078 4.25781C20.6901 4.07552 20.6901 3.88021 20.5078 3.67188Z" fill="black"/>
</svg>
