<svg width="21" height="21" viewBox="0 0 21 21" fill="none" xmlns="http://www.w3.org/2000/svg">
<path d="M17.2266 0.734375C17.9036 0.369792 18.5677 0.408854 19.2188 0.851562C19.8698 1.26823 20.1432 1.86719 20.0391 2.64844L17.6953 17.8047C17.5911 18.4036 17.2786 18.8464 16.7578 19.1328C16.4714 19.2891 16.1719 19.3672 15.8594 19.3672C15.599 19.3672 15.3516 19.3281 15.1172 19.25L10.7422 17.4531L9.0625 19.7578C8.69792 20.2005 8.24219 20.4479 7.69531 20.5C7.17448 20.5521 6.70573 20.3958 6.28906 20.0312C5.8724 19.6667 5.66406 19.1979 5.66406 18.625V15.3438L1.21094 13.4688C0.481771 13.1823 0.0911458 12.6484 0.0390625 11.8672C-0.0130208 11.0859 0.299479 10.5 0.976562 10.1094L17.2266 0.734375ZM7.53906 18.625L8.98438 16.6719L7.53906 16.0859V18.625ZM15.8594 17.4922L18.1641 2.375L1.91406 11.75L6.13281 13.5078L14.375 6.28125C14.6615 6.04688 14.9349 6.0599 15.1953 6.32031C15.4818 6.55469 15.5208 6.82812 15.3125 7.14062L9.84375 15.0312L15.8594 17.4922Z" fill="black"/>
</svg>
