<svg id="Component_1_1" data-name="Component 1 – 1" xmlns="http://www.w3.org/2000/svg" width="27.33" height="27.33" viewBox="0 0 27.33 27.33">
  <path id="Path_718" data-name="Path 718" d="M22.577,21.092l-3.462-3.462,3.462-3.462a1.05,1.05,0,0,0-1.485-1.485L17.63,16.145l-3.462-3.462a1.05,1.05,0,0,0-1.485,1.485l3.462,3.462-3.462,3.462a1.015,1.015,0,0,0,0,1.485,1.043,1.043,0,0,0,1.485,0l3.462-3.462,3.462,3.462a1.055,1.055,0,0,0,1.485,0A1.043,1.043,0,0,0,22.577,21.092Z" transform="translate(-3.965 -3.964)" fill="#0270ad"/>
  <path id="Path_719" data-name="Path 719" d="M17.04,5.215A11.821,11.821,0,1,1,8.677,8.677,11.747,11.747,0,0,1,17.04,5.215m0-1.84A13.665,13.665,0,1,0,30.705,17.04,13.663,13.663,0,0,0,17.04,3.375Z" transform="translate(-3.375 -3.375)" fill="#0270ad"/>
</svg>
