<?xml version="1.0" encoding="UTF-8"?>
<svg xmlns="http://www.w3.org/2000/svg" xmlns:xlink="http://www.w3.org/1999/xlink" width="18pt" height="18pt" viewBox="0 0 18 18" version="1.1">
<g id="surface1">
<path style=" stroke:none;fill-rule:nonzero;fill:rgb(0%,0%,0%);fill-opacity:1;" d="M 12 8.8125 C 11.855469 8.8125 11.710938 8.757812 11.601562 8.648438 C 11.382812 8.429688 11.382812 8.070312 11.601562 7.851562 L 14.039062 5.414062 C 14.261719 5.195312 14.617188 5.195312 14.835938 5.414062 C 15.054688 5.632812 15.054688 5.988281 14.835938 6.210938 L 12.398438 8.648438 C 12.289062 8.757812 12.144531 8.8125 12 8.8125 Z M 12 8.8125 "/>
<path style=" stroke:none;fill-rule:nonzero;fill:rgb(0%,0%,0%);fill-opacity:1;" d="M 9.75 9 L 1.5 9 C 0.671875 9 0 9.671875 0 10.5 L 0 16.5 C 0 17.328125 0.671875 18 1.5 18 L 9.75 18 C 10.578125 18 11.25 17.328125 11.25 16.5 L 11.25 10.5 C 11.25 9.671875 10.578125 9 9.75 9 Z M 9.375 16.5 L 1.875 16.5 C 1.667969 16.5 1.5 16.332031 1.5 16.125 L 1.5 12 L 9.75 12 L 9.75 16.125 C 9.75 16.332031 9.582031 16.5 9.375 16.5 Z M 9.375 16.5 "/>
<path style=" stroke:none;fill-rule:nonzero;fill:rgb(0%,0%,0%);fill-opacity:1;" d="M 15.75 0 L 2.25 0 C 1.007812 0 0 1.007812 0 2.25 L 0 8.835938 C 0.398438 8.476562 0.921875 8.25 1.5 8.25 L 1.5 3.75 L 16.5 3.75 L 16.5 14.25 C 16.5 14.664062 16.164062 15 15.75 15 L 12 15 L 12 16.5 L 15.75 16.5 C 16.992188 16.5 18 15.492188 18 14.25 L 18 2.25 C 18 1.007812 16.992188 0 15.75 0 Z M 15.75 0 "/>
<path style=" stroke:none;fill-rule:nonzero;fill:rgb(0%,0%,0%);fill-opacity:1;" d="M 13.6875 9 L 11.8125 9 C 11.503906 9 11.25 8.746094 11.25 8.4375 L 11.25 6.5625 C 11.25 6.335938 11.386719 6.128906 11.597656 6.042969 C 11.808594 5.957031 12.050781 6.003906 12.210938 6.164062 L 14.085938 8.039062 C 14.246094 8.203125 14.292969 8.441406 14.207031 8.652344 C 14.121094 8.863281 13.914062 9 13.6875 9 Z M 13.6875 9 "/>
</g>
</svg>
