<svg width="10" height="14" viewBox="0 0 10 14" fill="none" xmlns="http://www.w3.org/2000/svg">
<path d="M3.25893 11.1161L1.84471 9.70186L1.84471 9.70186L3.25893 11.1161ZM7.25893 7.11607L8.67314 8.53029L8.67314 8.53028L7.25893 7.11607ZM7.25893 6.3125L8.67314 4.89829H8.67314L7.25893 6.3125ZM3.25893 2.3125L4.67314 0.898287L4.67314 0.898286L3.25893 2.3125ZM0.285714 10.7143C0.285714 12.1314 1.44007 13.2857 2.85714 13.2857L2.85714 9.28572C3.64922 9.28572 4.28571 9.92222 4.28571 10.7143H0.285714ZM2.85714 13.2857C3.56848 13.2857 4.21203 12.9914 4.67315 12.5303L1.84471 9.70186C2.09154 9.45503 2.44938 9.28572 2.85714 9.28572L2.85714 13.2857ZM4.67314 12.5303L8.67314 8.53029L5.84472 5.70186L1.84471 9.70186L4.67314 12.5303ZM8.67314 8.53028C9.13426 8.06917 9.42857 7.42562 9.42857 6.71429H5.42857C5.42857 6.30653 5.59789 5.94869 5.84471 5.70186L8.67314 8.53028ZM9.42857 6.71429C9.42857 6.00296 9.13426 5.3594 8.67314 4.89829L5.84471 7.72671C5.59788 7.47988 5.42857 7.12205 5.42857 6.71429H9.42857ZM8.67314 4.89829L4.67314 0.898287L1.84471 3.72671L5.84472 7.72671L8.67314 4.89829ZM4.67314 0.898286C4.21203 0.437171 3.56847 0.142858 2.85714 0.142858V4.14286C2.44938 4.14286 2.09154 3.97354 1.84472 3.72671L4.67314 0.898286ZM2.85714 0.142858C1.44007 0.142858 0.285714 1.29722 0.285714 2.71429L4.28571 2.71429C4.28571 3.50635 3.64921 4.14286 2.85714 4.14286V0.142858ZM0.285714 2.71429L0.285714 10.7143H4.28571L4.28571 2.71429L0.285714 2.71429Z" fill="black"/>
</svg>
